<?xml version="1.0" standalone="no"?>
<!DOCTYPE svg PUBLIC "-//W3C//DTD SVG 20010904//EN"
 "http://www.w3.org/TR/2001/REC-SVG-20010904/DTD/svg10.dtd">
<svg version="1.0" xmlns="http://www.w3.org/2000/svg"
 width="300.000000pt" height="300.000000pt" viewBox="0 0 300.000000 300.000000"
 preserveAspectRatio="xMidYMid meet">
<metadata>
Created by potrace 1.10, written by Peter Selinger 2001-2011
</metadata>
<g transform="translate(0.000000,300.000000) scale(0.100000,-0.100000)"
fill="#000000" stroke="none">
<path d="M1408 2315 c-38 -19 -92 -49 -120 -68 -57 -36 -167 -90 -208 -102
-65 -19 -67 -57 -5 -118 25 -25 45 -54 45 -66 0 -12 2 -21 4 -21 3 0 69 -10
148 -21 134 -20 316 -22 418 -6 146 25 160 29 166 52 3 12 21 38 40 56 28 27
34 40 34 74 l0 40 -64 23 c-36 13 -117 55 -181 93 -114 68 -176 99 -199 99 -6
0 -41 -16 -78 -35z m197 -67 c50 -28 131 -73 180 -98 60 -31 91 -54 93 -66 1
-11 -15 -40 -38 -65 -43 -51 -26 -46 -246 -73 -42 -6 -60 6 -38 25 20 17 64
106 64 132 0 9 -15 33 -33 53 -56 61 -161 58 -207 -6 -11 -16 -20 -39 -20 -52
1 -32 33 -99 59 -122 29 -26 13 -35 -58 -30 -62 5 -170 24 -187 33 -17 9 -94
101 -94 112 0 5 10 13 23 18 55 21 129 59 227 117 58 33 112 64 120 67 37 14
72 4 155 -45z m-54 -105 c34 -20 36 -41 10 -100 -32 -70 -85 -83 -125 -30 -13
17 -29 49 -34 69 -9 35 -8 39 16 57 34 25 94 27 133 4z"/>
<path d="M1152 1864 c-18 -14 -49 -58 -68 -96 -30 -60 -36 -81 -36 -142 -1
-88 6 -124 38 -192 33 -70 137 -166 213 -196 76 -30 232 -32 306 -4 139 53
235 166 259 306 8 42 -7 29 -23 -21 -14 -45 -66 -118 -106 -151 -54 -45 -106
-67 -199 -84 -65 -12 -211 42 -268 100 -43 43 -78 92 -78 110 0 8 -4 17 -9 21
-5 3 -8 45 -7 93 4 106 25 161 92 232 l47 50 -64 0 c-54 0 -69 -4 -97 -26z
m35 -85 c-40 -78 -42 -84 -42 -172 0 -78 4 -100 25 -142 46 -93 153 -177 257
-199 51 -12 49 -26 -3 -26 -52 0 -169 50 -222 95 -79 66 -136 200 -125 293 14
117 80 231 135 232 14 0 10 -15 -25 -81z"/>
<path d="M1550 1829 c-63 -9 -111 -25 -108 -36 1 -5 -3 -18 -10 -30 -15 -27
-19 -27 59 -7 67 17 217 22 259 9 14 -4 37 -16 53 -27 33 -24 35 -8 3 26 -49
54 -152 80 -256 65z"/>
<path d="M1600 1727 c-3 -3 -30 -8 -62 -11 -95 -11 -130 -27 -144 -69 -10 -29
-10 -37 0 -37 6 0 16 4 22 9 8 7 67 30 99 37 6 2 35 9 65 17 74 20 189 15 240
-11 43 -21 45 -21 30 9 -18 33 -70 52 -160 56 -47 3 -87 3 -90 0z"/>
<path d="M1610 1633 c-85 -20 -121 -32 -195 -64 -16 -7 -34 -13 -40 -13 -11
-1 -51 -104 -43 -111 5 -5 71 27 93 45 8 7 15 10 15 6 0 -4 21 5 48 20 26 14
47 25 47 23 0 -2 29 8 65 23 36 14 94 31 130 38 57 11 70 10 104 -4 l39 -16
-19 21 c-44 49 -128 61 -244 32z m-105 -73 c-3 -5 -11 -10 -16 -10 -6 0 -29
-9 -51 -20 -23 -11 -44 -18 -46 -15 -4 4 51 31 98 48 22 8 22 8 15 -3z"/>
<path d="M817 1056 c-170 -68 -313 -128 -317 -132 -5 -5 -11 -72 -13 -149 -3
-115 -8 -151 -26 -200 -29 -77 -40 -173 -20 -186 18 -11 2100 -12 2118 0 10 7
12 23 8 62 -9 82 -13 100 -36 157 -18 44 -21 73 -21 182 0 92 -4 131 -12 137
-7 4 -150 63 -317 130 -249 100 -314 123 -355 123 -29 0 -109 -17 -192 -41
l-142 -42 -135 42 c-83 25 -153 41 -183 40 -38 0 -116 -27 -357 -123z m383 61
c0 -13 27 -89 61 -168 33 -79 66 -159 72 -176 5 -18 23 -47 38 -65 23 -27 31
-31 46 -22 22 13 50 94 59 168 6 46 3 59 -15 85 l-22 31 28 35 c15 19 31 35
34 35 4 0 18 -16 33 -34 l26 -35 -19 -38 c-17 -33 -18 -47 -10 -108 11 -82 44
-155 70 -155 11 0 28 17 43 43 34 59 166 382 166 407 0 17 6 20 40 20 46 0 47
-4 20 -45 -16 -24 -20 -47 -20 -120 0 -101 8 -120 62 -146 58 -29 197 -89 204
-89 4 0 46 -16 93 -36 47 -19 104 -43 126 -51 22 -8 50 -20 62 -26 16 -7 30
-7 48 1 14 7 28 12 30 12 7 0 55 -164 55 -187 0 -11 -7 -24 -16 -27 -21 -8
-1992 -8 -2023 1 -21 5 -23 10 -17 49 5 40 40 151 50 161 2 3 20 0 39 -5 25
-7 43 -6 63 3 16 7 61 25 99 40 39 16 79 34 90 42 11 7 28 13 37 13 10 0 26 4
36 10 9 5 62 28 117 51 144 60 145 61 145 184 0 87 -3 105 -20 125 -26 30 -18
40 31 40 34 0 39 -3 39 -23z m155 -28 c55 -17 101 -33 103 -34 2 -2 -16 -21
-40 -44 l-43 -41 34 -31 33 -31 -12 -96 c-7 -54 -16 -100 -19 -104 -4 -4 -33
59 -65 140 -33 81 -72 174 -88 208 -31 68 -34 78 -15 70 6 -2 57 -19 112 -37z
m422 29 c-28 -66 -111 -259 -122 -283 -7 -16 -22 -56 -32 -87 -10 -32 -21 -58
-25 -58 -3 0 -9 19 -12 43 -4 23 -12 70 -18 105 l-11 63 34 35 34 35 -46 44
-47 44 57 16 c31 9 81 24 111 34 68 23 84 24 77 9z m-667 -117 c0 -49 3 -96 6
-105 4 -10 -1 -18 -12 -22 -19 -6 -291 -118 -329 -135 -61 -26 -209 -89 -212
-89 -2 0 -3 51 -3 113 l0 113 263 105 c144 59 268 107 275 108 9 1 12 -23 12
-88z m1062 -17 l267 -107 3 -109 c2 -61 0 -112 -3 -114 -4 -2 -33 8 -65 23
-33 15 -153 66 -269 113 l-210 87 -3 106 c-1 59 1 107 5 107 4 0 128 -48 275
-106z"/>
<path d="M621 841 c-38 -38 -17 -93 34 -93 46 0 70 49 43 84 -22 28 -55 31
-77 9z"/>
<path d="M2312 844 c-26 -18 -30 -65 -7 -84 8 -7 26 -12 40 -12 53 0 74 53 35
92 -24 24 -38 25 -68 4z"/>
</g>
</svg>
